# xmcd
#
# Track frame offsets: 
#        150
#        14750
#        35407
#        50104
#        66251
#        81379
#        101019
#        127195
#        144717
#        161201
#        170743
#        192413
#        212167
#        227103
#
# Disc length: 3206 seconds
#
# Revision: 1
# Processed by: cddbd v1.5.2PL0 Copyright (c) Steve Scherf et al.
# Submitted via: ExactAudioCopy v0.99pb5
#
DISCID=e00c840e
DTITLE=John Reischman and the Jaybirds - Stellar Jays
DYEAR=2007
DGENRE=Bluegrass
TTITLE0=The Jaybird Song
TTITLE1=Her Bright Smile Haunts Me Still
TTITLE2=A Dime in My Pocket
TTITLE3=The Drunkard's Lantern
TTITLE4=Cleo Belle 
TTITLE5=What Are They Doing in Heaven Today?
TTITLE6=The House Carpenter
TTITLE7=Deception Falls
TTITLE8=I Am the Man, Thomas
TTITLE9=Bash Bish Falls
TTITLE10=On My Way to You
TTITLE11=Something I Don't Want To Know
TTITLE12=Fire on the Mountain
TTITLE13=Mississippi Hoedown
EXTD=
EXTT0=
EXTT1=
EXTT2=
EXTT3=
EXTT4=
EXTT5=
EXTT6=
EXTT7=
EXTT8=
EXTT9=
EXTT10=
EXTT11=
EXTT12=
EXTT13=
PLAYORDER=
